<svg width="43" height="42" viewBox="0 0 43 42" fill="none" xmlns="http://www.w3.org/2000/svg">
<path d="M21.1968 10.5C19.8988 10.5 18.63 10.8849 17.5508 11.606C16.4717 12.3271 15.6305 13.352 15.1338 14.5511C14.6371 15.7503 14.5072 17.0698 14.7604 18.3428C15.0136 19.6158 15.6386 20.7851 16.5564 21.7029C17.4742 22.6207 18.6435 23.2457 19.9165 23.4989C21.1895 23.7521 22.509 23.6222 23.7081 23.1255C24.9073 22.6288 25.9322 21.7876 26.6533 20.7084C27.3744 19.6292 27.7593 18.3604 27.7593 17.0625C27.7593 15.322 27.0679 13.6528 25.8372 12.4221C24.6065 11.1914 22.9373 10.5 21.1968 10.5ZM21.1968 21C20.418 21 19.6567 20.7691 19.0092 20.3364C18.3617 19.9038 17.857 19.2888 17.559 18.5693C17.261 17.8498 17.183 17.0581 17.3349 16.2943C17.4869 15.5305 17.8619 14.8289 18.4125 14.2783C18.9632 13.7276 19.6648 13.3526 20.4286 13.2007C21.1924 13.0487 21.9841 13.1267 22.7036 13.4247C23.4231 13.7227 24.038 14.2274 24.4707 14.8749C24.9033 15.5225 25.1343 16.2837 25.1343 17.0625C25.1343 18.1068 24.7194 19.1083 23.981 19.8467C23.2426 20.5852 22.2411 21 21.1968 21ZM21.1968 2.625C17.369 2.62934 13.6993 4.15183 10.9927 6.85844C8.2861 9.56506 6.76362 13.2348 6.75928 17.0625C6.75928 22.2141 9.13982 27.6741 13.6499 32.8535C15.6764 35.194 17.9573 37.3015 20.4503 39.1371C20.671 39.2917 20.9339 39.3746 21.2033 39.3746C21.4728 39.3746 21.7357 39.2917 21.9564 39.1371C24.4448 37.3007 26.7212 35.1932 28.7437 32.8535C33.2472 27.6741 35.6343 22.2141 35.6343 17.0625C35.6299 13.2348 34.1075 9.56506 31.4008 6.85844C28.6942 4.15183 25.0245 2.62934 21.1968 2.625ZM21.1968 36.4219C18.4848 34.2891 9.38428 26.4551 9.38428 17.0625C9.38428 13.9296 10.6288 10.9251 12.8441 8.7098C15.0594 6.49453 18.0639 5.25 21.1968 5.25C24.3296 5.25 27.3342 6.49453 29.5495 8.7098C31.7647 10.9251 33.0093 13.9296 33.0093 17.0625C33.0093 26.4518 23.9087 34.2891 21.1968 36.4219Z" fill="#33CFFF"/>
</svg>
