<svg width="40" height="31" viewBox="0 0 40 31" fill="none" xmlns="http://www.w3.org/2000/svg">
<path d="M37.7885 17.8928C37.3593 17.562 36.8673 17.3221 36.3424 17.1875C35.8175 17.053 35.2707 17.0267 34.7353 17.1102C37.8164 13.9996 39.375 10.907 39.375 7.87515C39.375 3.53242 35.8821 0.000153938 31.5886 0.000153938C30.4494 -0.0070003 29.3224 0.235296 28.2867 0.710032C27.2511 1.18477 26.3319 1.88044 25.5938 2.7482C24.8556 1.88044 23.9364 1.18477 22.9008 0.710032C21.8651 0.235296 20.7381 -0.0070003 19.5989 0.000153938C15.3054 0.000153938 11.8125 3.53242 11.8125 7.87515C11.8125 9.67984 12.3441 11.4337 13.463 13.2892C12.5466 13.5214 11.7103 13.9977 11.043 14.6673L7.33195 18.3752H2.625C1.92881 18.3752 1.26113 18.6517 0.768845 19.144C0.276562 19.6363 0 20.304 0 21.0002L0 27.5627C0 28.2588 0.276562 28.9265 0.768845 29.4188C1.26113 29.9111 1.92881 30.1877 2.625 30.1877H19.6875C19.7948 30.1877 19.9017 30.1745 20.0058 30.1483L30.5058 27.5233C30.5727 27.5073 30.6381 27.4854 30.701 27.4577L37.0781 24.7441L37.1503 24.7112C37.7632 24.405 38.288 23.9478 38.6754 23.3826C39.0627 22.8175 39.2998 22.163 39.3643 21.4809C39.4288 20.7988 39.3186 20.1115 39.044 19.4838C38.7695 18.856 38.3397 18.3085 37.7951 17.8928H37.7885ZM19.5989 2.62515C20.6155 2.61028 21.6133 2.89893 22.465 3.45421C23.3166 4.00949 23.9833 4.80616 24.3797 5.74234C24.4786 5.98307 24.6468 6.18896 24.863 6.33387C25.0791 6.47877 25.3335 6.55614 25.5938 6.55614C25.854 6.55614 26.1084 6.47877 26.3245 6.33387C26.5407 6.18896 26.7089 5.98307 26.8078 5.74234C27.2042 4.80616 27.8709 4.00949 28.7225 3.45421C29.5742 2.89893 30.572 2.61028 31.5886 2.62515C34.3859 2.62515 36.75 5.02867 36.75 7.87515C36.75 11.076 34.1595 14.6969 29.2589 18.3587L27.4395 18.7771C27.5992 18.1025 27.6041 17.4004 27.4539 16.7236C27.3037 16.0468 27.0022 15.4128 26.5721 14.869C26.142 14.3253 25.5944 13.8859 24.9704 13.5839C24.3463 13.2819 23.662 13.1251 22.9688 13.1252H16.5178C15.102 11.2155 14.4375 9.53547 14.4375 7.87515C14.4375 5.02867 16.8016 2.62515 19.5989 2.62515ZM2.625 21.0002H6.5625V27.5627H2.625V21.0002ZM36.0002 22.3471L29.7659 25.0016L19.5234 27.5627H9.1875V20.2307L12.9002 16.5196C13.1431 16.2748 13.4322 16.0807 13.7508 15.9486C14.0693 15.8165 14.4109 15.7491 14.7558 15.7502H22.9688C23.4909 15.7502 23.9917 15.9576 24.3609 16.3268C24.7301 16.696 24.9375 17.1968 24.9375 17.7189C24.9375 18.241 24.7301 18.7418 24.3609 19.111C23.9917 19.4802 23.4909 19.6877 22.9688 19.6877H18.375C18.0269 19.6877 17.6931 19.8259 17.4469 20.0721C17.2008 20.3182 17.0625 20.6521 17.0625 21.0002C17.0625 21.3482 17.2008 21.6821 17.4469 21.9282C17.6931 22.1744 18.0269 22.3127 18.375 22.3127H23.625C23.7238 22.3124 23.8223 22.3014 23.9187 22.2798L34.9109 19.7516L34.9617 19.7385C35.2973 19.6454 35.6554 19.6796 35.9673 19.8346C36.2791 19.9897 36.5226 20.2545 36.6509 20.5783C36.7791 20.9021 36.7832 21.2618 36.6621 21.5884C36.5411 21.9149 36.3036 22.1852 35.9953 22.3471H36.0002Z" fill="#33CFFF"/>
</svg>
