<svg width="34" height="30" viewBox="0 0 34 30" fill="none" xmlns="http://www.w3.org/2000/svg">
<path d="M31.1343 5.5H4.88428C4.53618 5.5 4.20234 5.36172 3.9562 5.11558C3.71006 4.86944 3.57178 4.5356 3.57178 4.1875C3.57178 3.8394 3.71006 3.50556 3.9562 3.25942C4.20234 3.01328 4.53618 2.875 4.88428 2.875H27.1968C27.5449 2.875 27.8787 2.73672 28.1249 2.49058C28.371 2.24444 28.5093 1.9106 28.5093 1.5625C28.5093 1.2144 28.371 0.880564 28.1249 0.634423C27.8787 0.388281 27.5449 0.25 27.1968 0.25H4.88428C3.83999 0.25 2.83847 0.664843 2.10004 1.40327C1.36162 2.14169 0.946777 3.14321 0.946777 4.1875V25.1875C0.946777 26.2318 1.36162 27.2333 2.10004 27.9717C2.83847 28.7102 3.83999 29.125 4.88428 29.125H31.1343C31.8305 29.125 32.4981 28.8484 32.9904 28.3562C33.4827 27.8639 33.7593 27.1962 33.7593 26.5V8.125C33.7593 7.42881 33.4827 6.76113 32.9904 6.26885C32.4981 5.77656 31.8305 5.5 31.1343 5.5ZM31.1343 26.5H4.88428C4.53618 26.5 4.20234 26.3617 3.9562 26.1156C3.71006 25.8694 3.57178 25.5356 3.57178 25.1875V7.90023C3.99321 8.04963 4.43715 8.12565 4.88428 8.125H31.1343V26.5ZM23.2593 16.6562C23.2593 16.2669 23.3747 15.8862 23.5911 15.5625C23.8074 15.2387 24.1149 14.9864 24.4746 14.8374C24.8344 14.6884 25.2302 14.6494 25.6121 14.7253C25.994 14.8013 26.3448 14.9888 26.6201 15.2641C26.8955 15.5395 27.083 15.8903 27.1589 16.2722C27.2349 16.6541 27.1959 17.0499 27.0469 17.4097C26.8979 17.7694 26.6456 18.0769 26.3218 18.2932C25.998 18.5095 25.6174 18.625 25.228 18.625C24.7059 18.625 24.2051 18.4176 23.8359 18.0484C23.4667 17.6792 23.2593 17.1784 23.2593 16.6562Z" fill="#33CFFF"/>
</svg>
