<svg width="38" height="33" viewBox="0 0 38 33" fill="none" xmlns="http://www.w3.org/2000/svg">
<path d="M17.6968 16.3125C17.6968 16.6606 17.5585 16.9944 17.3124 17.2406C17.0662 17.4867 16.7324 17.625 16.3843 17.625H8.50928C8.16118 17.625 7.82734 17.4867 7.5812 17.2406C7.33506 16.9944 7.19678 16.6606 7.19678 16.3125C7.19678 15.9644 7.33506 15.6306 7.5812 15.3844C7.82734 15.1383 8.16118 15 8.50928 15H16.3843C16.7324 15 17.0662 15.1383 17.3124 15.3844C17.5585 15.6306 17.6968 15.9644 17.6968 16.3125ZM16.3843 9.75H8.50928C8.16118 9.75 7.82734 9.88828 7.5812 10.1344C7.33506 10.3806 7.19678 10.7144 7.19678 11.0625C7.19678 11.4106 7.33506 11.7444 7.5812 11.9906C7.82734 12.2367 8.16118 12.375 8.50928 12.375H16.3843C16.7324 12.375 17.0662 12.2367 17.3124 11.9906C17.5585 11.7444 17.6968 11.4106 17.6968 11.0625C17.6968 10.7144 17.5585 10.3806 17.3124 10.1344C17.0662 9.88828 16.7324 9.75 16.3843 9.75ZM34.7593 20.4912V30.75C34.7614 30.9814 34.7022 31.2092 34.5879 31.4104C34.4735 31.6116 34.308 31.7789 34.1082 31.8955C33.9083 32.0121 33.6811 32.0738 33.4497 32.0743C33.2183 32.0748 32.9909 32.0141 32.7905 31.8984L28.853 29.6442L24.9155 31.8984C24.7151 32.0141 24.4877 32.0748 24.2563 32.0743C24.0249 32.0738 23.7978 32.0121 23.5979 31.8955C23.398 31.7789 23.2325 31.6116 23.1182 31.4104C23.0038 31.2092 22.9447 30.9814 22.9468 30.75V26.8125H3.25928C2.56308 26.8125 1.8954 26.5359 1.40312 26.0437C0.910839 25.5514 0.634277 24.8837 0.634277 24.1875V3.1875C0.634277 2.49131 0.910839 1.82363 1.40312 1.33134C1.8954 0.839062 2.56308 0.5625 3.25928 0.5625H32.1343C32.8305 0.5625 33.4981 0.839062 33.9904 1.33134C34.4827 1.82363 34.7593 2.49131 34.7593 3.1875V8.19633C35.589 8.99086 36.2492 9.94512 36.7003 11.0016C37.1514 12.0581 37.3839 13.195 37.3839 14.3438C37.3839 15.4925 37.1514 16.6294 36.7003 17.6859C36.2492 18.7424 35.589 19.6966 34.7593 20.4912ZM22.9468 24.1875V20.4912C21.5165 19.1118 20.6126 17.2764 20.391 15.3017C20.1694 13.3271 20.6441 11.337 21.7331 9.67491C22.8221 8.01283 24.4571 6.78302 26.356 6.19769C28.2549 5.61236 30.2985 5.70823 32.1343 6.46875V3.1875H3.25928V24.1875H22.9468ZM32.1343 22.2188C31.0948 22.653 29.9795 22.8766 28.853 22.8766C27.7265 22.8766 26.6112 22.653 25.5718 22.2188V28.4892L28.1968 26.9864C28.3951 26.873 28.6196 26.8134 28.8481 26.8134C29.0766 26.8134 29.3011 26.873 29.4994 26.9864L32.1244 28.4892L32.1343 22.2188ZM34.7593 14.3438C34.7593 13.1756 34.4129 12.0337 33.7639 11.0624C33.1149 10.0911 32.1925 9.33412 31.1133 8.88709C30.034 8.44006 28.8465 8.32309 27.7008 8.55099C26.5551 8.77888 25.5027 9.3414 24.6767 10.1674C23.8507 10.9934 23.2882 12.0458 23.0603 13.1915C22.8324 14.3372 22.9493 15.5247 23.3964 16.604C23.8434 17.6832 24.6004 18.6056 25.5717 19.2546C26.543 19.9036 27.6849 20.25 28.853 20.25C29.6286 20.25 30.3967 20.0972 31.1133 19.8004C31.8298 19.5036 32.4809 19.0685 33.0294 18.5201C33.5778 17.9717 34.0129 17.3206 34.3097 16.604C34.6065 15.8874 34.7593 15.1194 34.7593 14.3438Z" fill="#33CFFF"/>
</svg>
