<svg width="33" height="35" viewBox="0 0 33 35" fill="none" xmlns="http://www.w3.org/2000/svg">
<path d="M29.8218 3.25H25.8843V1.9375C25.8843 1.5894 25.746 1.25556 25.4999 1.00942C25.2537 0.763281 24.9199 0.625 24.5718 0.625C24.2237 0.625 23.8898 0.763281 23.6437 1.00942C23.3976 1.25556 23.2593 1.5894 23.2593 1.9375V3.25H10.1343V1.9375C10.1343 1.5894 9.996 1.25556 9.74986 1.00942C9.50371 0.763281 9.16987 0.625 8.82178 0.625C8.47368 0.625 8.13984 0.763281 7.8937 1.00942C7.64756 1.25556 7.50928 1.5894 7.50928 1.9375V3.25H3.57178C2.87558 3.25 2.2079 3.52656 1.71562 4.01884C1.22334 4.51113 0.946777 5.17881 0.946777 5.875V32.125C0.946777 32.8212 1.22334 33.4889 1.71562 33.9812C2.2079 34.4734 2.87558 34.75 3.57178 34.75H29.8218C30.518 34.75 31.1856 34.4734 31.6779 33.9812C32.1702 33.4889 32.4468 32.8212 32.4468 32.125V5.875C32.4468 5.17881 32.1702 4.51113 31.6779 4.01884C31.1856 3.52656 30.518 3.25 29.8218 3.25ZM7.50928 5.875V7.1875C7.50928 7.5356 7.64756 7.86944 7.8937 8.11558C8.13984 8.36172 8.47368 8.5 8.82178 8.5C9.16987 8.5 9.50371 8.36172 9.74986 8.11558C9.996 7.86944 10.1343 7.5356 10.1343 7.1875V5.875H23.2593V7.1875C23.2593 7.5356 23.3976 7.86944 23.6437 8.11558C23.8898 8.36172 24.2237 8.5 24.5718 8.5C24.9199 8.5 25.2537 8.36172 25.4999 8.11558C25.746 7.86944 25.8843 7.5356 25.8843 7.1875V5.875H29.8218V11.125H3.57178V5.875H7.50928ZM29.8218 32.125H3.57178V13.75H29.8218V32.125ZM21.9468 22.9375C21.9468 23.2856 21.8085 23.6194 21.5624 23.8656C21.3162 24.1117 20.9824 24.25 20.6343 24.25H18.0093V26.875C18.0093 27.2231 17.871 27.5569 17.6249 27.8031C17.3787 28.0492 17.0449 28.1875 16.6968 28.1875C16.3487 28.1875 16.0148 28.0492 15.7687 27.8031C15.5226 27.5569 15.3843 27.2231 15.3843 26.875V24.25H12.7593C12.4112 24.25 12.0773 24.1117 11.8312 23.8656C11.5851 23.6194 11.4468 23.2856 11.4468 22.9375C11.4468 22.5894 11.5851 22.2556 11.8312 22.0094C12.0773 21.7633 12.4112 21.625 12.7593 21.625H15.3843V19C15.3843 18.6519 15.5226 18.3181 15.7687 18.0719C16.0148 17.8258 16.3487 17.6875 16.6968 17.6875C17.0449 17.6875 17.3787 17.8258 17.6249 18.0719C17.871 18.3181 18.0093 18.6519 18.0093 19V21.625H20.6343C20.9824 21.625 21.3162 21.7633 21.5624 22.0094C21.8085 22.2556 21.9468 22.5894 21.9468 22.9375Z" fill="#33CFFF"/>
</svg>
