<svg width="16" height="10" viewBox="0 0 16 10" fill="none" xmlns="http://www.w3.org/2000/svg">
<path d="M7.69421 9.36446C7.55164 9.36528 7.4103 9.33796 7.27831 9.28404C7.14632 9.23013 7.02627 9.1507 6.92505 9.05029L0.425045 2.55029C0.221049 2.3463 0.106445 2.06962 0.106445 1.78113C0.106445 1.49263 0.221049 1.21595 0.425045 1.01196C0.62904 0.807963 0.905718 0.693359 1.19421 0.693359C1.4827 0.693359 1.75938 0.807963 1.96338 1.01196L7.69421 6.75363L13.425 1.02279C13.6323 0.845314 13.8989 0.752573 14.1715 0.763105C14.4442 0.773636 14.7028 0.886663 14.8957 1.0796C15.0887 1.27253 15.2017 1.53117 15.2122 1.80382C15.2228 2.07647 15.13 2.34305 14.9525 2.55029L8.45255 9.05029C8.25076 9.25043 7.97841 9.36326 7.69421 9.36446Z" fill="#0C4E6E"/>
</svg>
