<svg width="32" height="32" viewBox="0 0 32 32" fill="none" xmlns="http://www.w3.org/2000/svg">
<path d="M29.1519 0.439941H2.90186C2.20566 0.439941 1.53798 0.716503 1.0457 1.20879C0.553417 1.70107 0.276855 2.36875 0.276855 3.06494V29.3149C0.276855 30.0111 0.553417 30.6788 1.0457 31.1711C1.53798 31.6634 2.20566 31.9399 2.90186 31.9399H29.1519C29.848 31.9399 30.5157 31.6634 31.008 31.1711C31.5003 30.6788 31.7769 30.0111 31.7769 29.3149V3.06494C31.7769 2.36875 31.5003 1.70107 31.008 1.20879C30.5157 0.716503 29.848 0.439941 29.1519 0.439941ZM8.15186 3.06494H12.0894V17.5024H8.15186V3.06494ZM13.4019 20.1274C13.75 20.1274 14.0838 19.9892 14.3299 19.743C14.5761 19.4969 14.7144 19.163 14.7144 18.8149V3.06494H17.3394V18.8149C17.3394 19.163 17.4776 19.4969 17.7238 19.743C17.9699 19.9892 18.3038 20.1274 18.6519 20.1274H19.9644V29.3149H12.0894V20.1274H13.4019ZM19.9644 17.5024V3.06494H23.9019V17.5024H19.9644ZM2.90186 3.06494H5.52686V18.8149C5.52686 19.163 5.66514 19.4969 5.91128 19.743C6.15742 19.9892 6.49126 20.1274 6.83936 20.1274H9.46436V29.3149H2.90186V3.06494ZM29.1519 29.3149H22.5894V20.1274H25.2144C25.5625 20.1274 25.8963 19.9892 26.1424 19.743C26.3886 19.4969 26.5269 19.163 26.5269 18.8149V3.06494H29.1519V29.3149Z" fill="#33CFFF"/>
</svg>
