<svg width="13" height="14" viewBox="0 0 13 14" fill="none" xmlns="http://www.w3.org/2000/svg">
<path d="M11.8374 1.0293H10.3374V0.529297C10.3374 0.396689 10.2847 0.269512 10.191 0.175743C10.0972 0.0819753 9.97001 0.0292969 9.8374 0.0292969C9.70479 0.0292969 9.57762 0.0819753 9.48385 0.175743C9.39008 0.269512 9.3374 0.396689 9.3374 0.529297V1.0293H4.3374V0.529297C4.3374 0.396689 4.28472 0.269512 4.19096 0.175743C4.09719 0.0819753 3.97001 0.0292969 3.8374 0.0292969C3.70479 0.0292969 3.57762 0.0819753 3.48385 0.175743C3.39008 0.269512 3.3374 0.396689 3.3374 0.529297V1.0293H1.8374C1.57219 1.0293 1.31783 1.13465 1.1303 1.32219C0.942759 1.50973 0.837402 1.76408 0.837402 2.0293V12.0293C0.837402 12.2945 0.942759 12.5489 1.1303 12.7364C1.31783 12.9239 1.57219 13.0293 1.8374 13.0293H11.8374C12.1026 13.0293 12.357 12.9239 12.5445 12.7364C12.732 12.5489 12.8374 12.2945 12.8374 12.0293V2.0293C12.8374 1.76408 12.732 1.50973 12.5445 1.32219C12.357 1.13465 12.1026 1.0293 11.8374 1.0293ZM9.44115 7.38305L6.44115 10.383C6.39472 10.4295 6.33957 10.4664 6.27887 10.4916C6.21817 10.5167 6.15311 10.5297 6.0874 10.5297C6.02169 10.5297 5.95663 10.5167 5.89593 10.4916C5.83523 10.4664 5.78009 10.4295 5.73365 10.383L4.23365 8.88305C4.13983 8.78923 4.08712 8.66198 4.08712 8.5293C4.08712 8.39662 4.13983 8.26937 4.23365 8.17555C4.32747 8.08173 4.45472 8.02902 4.5874 8.02902C4.72008 8.02902 4.84733 8.08173 4.94115 8.17555L6.0874 9.32242L8.73365 6.67555C8.78011 6.62909 8.83526 6.59224 8.89595 6.5671C8.95665 6.54196 9.0217 6.52902 9.0874 6.52902C9.1531 6.52902 9.21815 6.54196 9.27885 6.5671C9.33955 6.59224 9.3947 6.62909 9.44115 6.67555C9.48761 6.722 9.52446 6.77715 9.5496 6.83785C9.57474 6.89855 9.58768 6.9636 9.58768 7.0293C9.58768 7.09499 9.57474 7.16005 9.5496 7.22075C9.52446 7.28144 9.48761 7.33659 9.44115 7.38305ZM1.8374 4.0293V2.0293H3.3374V2.5293C3.3374 2.66191 3.39008 2.78908 3.48385 2.88285C3.57762 2.97662 3.70479 3.0293 3.8374 3.0293C3.97001 3.0293 4.09719 2.97662 4.19096 2.88285C4.28472 2.78908 4.3374 2.66191 4.3374 2.5293V2.0293H9.3374V2.5293C9.3374 2.66191 9.39008 2.78908 9.48385 2.88285C9.57762 2.97662 9.70479 3.0293 9.8374 3.0293C9.97001 3.0293 10.0972 2.97662 10.191 2.88285C10.2847 2.78908 10.3374 2.66191 10.3374 2.5293V2.0293H11.8374V4.0293H1.8374Z" fill="#F0FBFF"/>
</svg>
