<svg width="33" height="34" viewBox="0 0 33 34" fill="none" xmlns="http://www.w3.org/2000/svg">
<path d="M29.8218 0.752441H3.57178C2.87558 0.752441 2.2079 1.029 1.71562 1.52129C1.22334 2.01357 0.946777 2.68125 0.946777 3.37744V12.5649C0.946777 21.2143 5.13365 26.4561 8.64623 29.3305C12.4295 32.4247 16.1931 33.4747 16.3572 33.519C16.5828 33.5804 16.8206 33.5804 17.0462 33.519C17.2103 33.4747 20.969 32.4247 24.7572 29.3305C28.2599 26.4561 32.4468 21.2143 32.4468 12.5649V3.37744C32.4468 2.68125 32.1702 2.01357 31.6779 1.52129C31.1856 1.029 30.518 0.752441 29.8218 0.752441ZM29.8218 12.5649C29.8218 18.6467 27.5807 23.5834 23.1608 27.2354C21.2368 28.8198 19.0487 30.0527 16.6968 30.8776C14.3756 30.0671 12.2145 28.856 10.3115 27.2994C5.83912 23.6408 3.57178 18.6845 3.57178 12.5649V3.37744H29.8218V12.5649ZM9.20568 17.431C8.9594 17.1848 8.82105 16.8507 8.82105 16.5024C8.82105 16.1542 8.9594 15.8201 9.20568 15.5738C9.45196 15.3276 9.78599 15.1892 10.1343 15.1892C10.4826 15.1892 10.8166 15.3276 11.0629 15.5738L14.0718 18.5844L22.3307 10.3238C22.4526 10.2019 22.5974 10.1052 22.7567 10.0392C22.9161 9.97318 23.0868 9.93921 23.2593 9.93921C23.4317 9.93921 23.6025 9.97318 23.7618 10.0392C23.9212 10.1052 24.0659 10.2019 24.1879 10.3238C24.3098 10.4458 24.4065 10.5906 24.4725 10.7499C24.5385 10.9092 24.5725 11.08 24.5725 11.2524C24.5725 11.4249 24.5385 11.5957 24.4725 11.755C24.4065 11.9143 24.3098 12.0591 24.1879 12.181L15.0004 21.3685C14.8785 21.4906 14.7337 21.5874 14.5744 21.6534C14.4151 21.7195 14.2443 21.7535 14.0718 21.7535C13.8993 21.7535 13.7285 21.7195 13.5692 21.6534C13.4098 21.5874 13.2651 21.4906 13.1432 21.3685L9.20568 17.431Z" fill="#33CFFF"/>
</svg>
