<svg width="43" height="42" viewBox="0 0 43 42" fill="none" xmlns="http://www.w3.org/2000/svg">
<path d="M34.3218 5.25H30.3843V3.9375C30.3843 3.5894 30.246 3.25556 29.9999 3.00942C29.7537 2.76328 29.4199 2.625 29.0718 2.625C28.7237 2.625 28.3898 2.76328 28.1437 3.00942C27.8976 3.25556 27.7593 3.5894 27.7593 3.9375V5.25H14.6343V3.9375C14.6343 3.5894 14.496 3.25556 14.2499 3.00942C14.0037 2.76328 13.6699 2.625 13.3218 2.625C12.9737 2.625 12.6398 2.76328 12.3937 3.00942C12.1476 3.25556 12.0093 3.5894 12.0093 3.9375V5.25H8.07178C7.37558 5.25 6.7079 5.52656 6.21562 6.01884C5.72334 6.51113 5.44678 7.17881 5.44678 7.875V34.125C5.44678 34.8212 5.72334 35.4889 6.21562 35.9812C6.7079 36.4734 7.37558 36.75 8.07178 36.75H34.3218C35.018 36.75 35.6856 36.4734 36.1779 35.9812C36.6702 35.4889 36.9468 34.8212 36.9468 34.125V7.875C36.9468 7.17881 36.6702 6.51113 36.1779 6.01884C35.6856 5.52656 35.018 5.25 34.3218 5.25ZM12.0093 7.875V9.1875C12.0093 9.5356 12.1476 9.86944 12.3937 10.1156C12.6398 10.3617 12.9737 10.5 13.3218 10.5C13.6699 10.5 14.0037 10.3617 14.2499 10.1156C14.496 9.86944 14.6343 9.5356 14.6343 9.1875V7.875H27.7593V9.1875C27.7593 9.5356 27.8976 9.86944 28.1437 10.1156C28.3898 10.3617 28.7237 10.5 29.0718 10.5C29.4199 10.5 29.7537 10.3617 29.9999 10.1156C30.246 9.86944 30.3843 9.5356 30.3843 9.1875V7.875H34.3218V13.125H8.07178V7.875H12.0093ZM34.3218 34.125H8.07178V15.75H34.3218V34.125ZM28.0316 20.0714C28.1537 20.1933 28.2505 20.3381 28.3165 20.4974C28.3826 20.6567 28.4166 20.8275 28.4166 21C28.4166 21.1725 28.3826 21.3433 28.3165 21.5026C28.2505 21.6619 28.1537 21.8067 28.0316 21.9286L20.1566 29.8036C20.0347 29.9256 19.89 30.0224 19.7306 30.0885C19.5713 30.1545 19.4005 30.1885 19.228 30.1885C19.0555 30.1885 18.8848 30.1545 18.7254 30.0885C18.5661 30.0224 18.4213 29.9256 18.2994 29.8036L14.3619 25.8661C14.1157 25.6198 13.9773 25.2858 13.9773 24.9375C13.9773 24.5892 14.1157 24.2552 14.3619 24.0089C14.6082 23.7626 14.9422 23.6243 15.2905 23.6243C15.6388 23.6243 15.9728 23.7626 16.2191 24.0089L19.228 27.0195L26.1744 20.0714C26.2963 19.9494 26.4411 19.8526 26.6004 19.7865C26.7598 19.7205 26.9305 19.6865 27.103 19.6865C27.2755 19.6865 27.4463 19.7205 27.6056 19.7865C27.765 19.8526 27.9097 19.9494 28.0316 20.0714Z" fill="#33CFFF"/>
</svg>
