<svg width="36" height="18" viewBox="0 0 36 18" fill="none" xmlns="http://www.w3.org/2000/svg">
<path d="M34.4331 13.901C34.2832 13.9865 34.1179 14.0415 33.9467 14.0631C33.7755 14.0846 33.6017 14.0721 33.4353 14.0264C33.2689 13.9807 33.1131 13.9026 32.9769 13.7966C32.8407 13.6907 32.7268 13.5589 32.6416 13.4088L29.5244 7.96191C27.7121 9.18725 25.713 10.1103 23.605 10.6952L24.5681 16.4735C24.5965 16.6436 24.5911 16.8176 24.5522 16.9856C24.5133 17.1537 24.4417 17.3124 24.3415 17.4527C24.2412 17.593 24.1143 17.7122 23.9679 17.8035C23.8216 17.8947 23.6587 17.9562 23.4885 17.9845C23.4186 17.9959 23.3478 18.002 23.2769 18.0025C22.9664 18.0021 22.6661 17.8915 22.4294 17.6906C22.1927 17.4896 22.0349 17.2113 21.9841 16.905L21.0374 11.2317C19.0411 11.5095 17.0159 11.5095 15.0196 11.2317L14.073 16.905C14.0221 17.2118 13.8638 17.4906 13.6264 17.6916C13.389 17.8927 13.088 18.0028 12.7769 18.0025C12.7043 18.0022 12.6319 17.9962 12.5603 17.9845C12.3902 17.9562 12.2273 17.8947 12.081 17.8035C11.9346 17.7122 11.8077 17.593 11.7074 17.4527C11.6072 17.3124 11.5355 17.1537 11.4967 16.9856C11.4578 16.8176 11.4524 16.6436 11.4808 16.4735L12.4488 10.6952C10.3416 10.1085 8.3436 9.18374 6.53268 7.95698L3.42533 13.4088C3.25128 13.7121 2.96389 13.9338 2.62636 14.0252C2.28884 14.1165 1.92885 14.0701 1.62557 13.896C1.32229 13.722 1.10057 13.4346 1.00919 13.0971C0.917809 12.7596 0.964252 12.3996 1.1383 12.0963L4.41955 6.35409C3.26701 5.35837 2.2072 4.26011 1.25314 3.07284C1.13416 2.94 1.0435 2.7843 0.986699 2.61526C0.929894 2.44621 0.908135 2.26736 0.92275 2.08962C0.937365 1.91189 0.988049 1.73899 1.07171 1.5815C1.15536 1.424 1.27024 1.2852 1.40932 1.17358C1.5484 1.06196 1.70878 0.979848 1.88065 0.932266C2.05252 0.884684 2.23228 0.872626 2.40897 0.89683C2.58565 0.921034 2.75555 0.980991 2.9083 1.07304C3.06104 1.16509 3.19342 1.2873 3.29736 1.43222C6.0208 4.80206 10.7852 8.81503 18.0269 8.81503C25.2686 8.81503 30.033 4.79714 32.7564 1.43222C32.8592 1.28434 32.9913 1.15918 33.1445 1.06454C33.2977 0.969899 33.4687 0.907795 33.6469 0.882091C33.8252 0.856388 34.0068 0.867636 34.1805 0.915135C34.3542 0.962634 34.5162 1.04537 34.6566 1.15819C34.7969 1.27101 34.9126 1.41151 34.9963 1.57094C35.08 1.73037 35.13 1.90532 35.1432 2.08491C35.1564 2.2645 35.1325 2.44489 35.073 2.61485C35.0135 2.78481 34.9197 2.94071 34.7974 3.07284C33.8433 4.26011 32.7835 5.35837 31.631 6.35409L34.9122 12.0963C35.0003 12.246 35.0578 12.4116 35.0814 12.5837C35.105 12.7558 35.0942 12.9308 35.0496 13.0987C35.005 13.2665 34.9276 13.4239 34.8218 13.5616C34.716 13.6993 34.5839 13.8147 34.4331 13.901Z" fill="#33CFFF"/>
</svg>
