<svg width="43" height="42" viewBox="0 0 43 42" fill="none" xmlns="http://www.w3.org/2000/svg">
<path d="M37.6752 14.6572L21.9252 4.15722C21.7095 4.01332 21.4561 3.93652 21.1968 3.93652C20.9375 3.93652 20.684 4.01332 20.4683 4.15722L4.71834 14.6572C4.53855 14.7772 4.39116 14.9397 4.28927 15.1303C4.18738 15.3209 4.13414 15.5337 4.13428 15.7499V32.8124C4.13428 33.5086 4.41084 34.1762 4.90312 34.6685C5.39541 35.1608 6.06308 35.4374 6.75928 35.4374H35.6343C36.3305 35.4374 36.9981 35.1608 37.4904 34.6685C37.9827 34.1762 38.2593 33.5086 38.2593 32.8124V15.7499C38.2594 15.5337 38.2062 15.3209 38.1043 15.1303C38.0024 14.9397 37.855 14.7772 37.6752 14.6572ZM16.0649 24.9374L6.75928 31.4999V18.2978L16.0649 24.9374ZM18.7506 26.2499H23.643L32.9338 32.8124H9.45975L18.7506 26.2499ZM26.3287 24.9374L35.6343 18.2978V31.4999L26.3287 24.9374ZM21.1968 6.82652L34.6351 15.786L23.643 23.6249H18.7539L7.7617 15.786L21.1968 6.82652Z" fill="#33CFFF"/>
</svg>
