<svg width="16" height="15" viewBox="0 0 16 15" fill="none" xmlns="http://www.w3.org/2000/svg">
<path d="M15.3125 7.52846C15.3102 9.31567 14.6544 11.0404 13.4688 12.3777C12.2831 13.715 10.6494 14.5726 8.87536 14.7889C8.83586 14.7934 8.79585 14.7894 8.75799 14.7773C8.72013 14.7652 8.68526 14.7452 8.6557 14.7186C8.62613 14.6921 8.60253 14.6595 8.58646 14.6231C8.57039 14.5868 8.56222 14.5474 8.56247 14.5077V9.21595H10.25C10.3271 9.21612 10.4034 9.20044 10.4742 9.16987C10.545 9.1393 10.6087 9.0945 10.6615 9.03825C10.7142 8.98201 10.7549 8.91552 10.7808 8.84291C10.8068 8.7703 10.8176 8.69313 10.8125 8.61619C10.8 8.47154 10.7333 8.33697 10.6257 8.23953C10.5181 8.14208 10.3776 8.089 10.2324 8.09096H8.56247V6.40346C8.56247 6.10509 8.68099 5.81894 8.89197 5.60796C9.10295 5.39698 9.3891 5.27846 9.68747 5.27846H10.8125C10.8896 5.27862 10.9659 5.26294 11.0367 5.23237C11.1075 5.2018 11.1712 5.157 11.224 5.10075C11.2767 5.04451 11.3174 4.97802 11.3433 4.90541C11.3693 4.8328 11.3801 4.75563 11.375 4.67869C11.3625 4.5338 11.2956 4.39902 11.1877 4.30154C11.0798 4.20406 10.9389 4.15114 10.7935 4.15346H9.68747C9.09073 4.15346 8.51844 4.39051 8.09648 4.81246C7.67452 5.23442 7.43747 5.80672 7.43747 6.40346V8.09096H5.74997C5.67286 8.09079 5.59653 8.10647 5.52574 8.13704C5.45495 8.16761 5.39119 8.21241 5.33844 8.26866C5.28569 8.3249 5.24507 8.39139 5.2191 8.464C5.19312 8.53661 5.18236 8.61378 5.18747 8.69072C5.19991 8.83561 5.26684 8.97039 5.37476 9.06787C5.48267 9.16535 5.62355 9.21827 5.76895 9.21595H7.43747V14.5091C7.43771 14.5488 7.42955 14.5881 7.41352 14.6244C7.39749 14.6607 7.37396 14.6932 7.34447 14.7197C7.31499 14.7463 7.28021 14.7663 7.24243 14.7785C7.20465 14.7907 7.16473 14.7947 7.12528 14.7903C5.30373 14.5685 3.63185 13.6709 2.44055 12.2752C1.24925 10.8794 0.625371 9.08731 0.69239 7.25353C0.833015 3.45666 3.90848 0.369939 7.70817 0.222283C8.69191 0.184178 9.67322 0.344874 10.5934 0.694758C11.5136 1.04464 12.3538 1.57653 13.0637 2.2586C13.7736 2.94067 14.3387 3.75892 14.725 4.6644C15.1114 5.56988 15.3112 6.54398 15.3125 7.52846Z" fill="white"/>
</svg>
