<svg width="15" height="15" viewBox="0 0 15 15" fill="none" xmlns="http://www.w3.org/2000/svg">
<path d="M15.0097 7.64979C15.0074 9.437 14.3517 11.1617 13.1661 12.499C11.9804 13.8363 10.3467 14.6939 8.57262 14.9103C8.53312 14.9147 8.49312 14.9108 8.45526 14.8987C8.41739 14.8865 8.38253 14.8665 8.35296 14.84C8.3234 14.8134 8.2998 14.7808 8.28373 14.7445C8.26766 14.7081 8.25948 14.6688 8.25973 14.629V9.33729H9.94723C10.0243 9.33746 10.1007 9.32177 10.1715 9.29121C10.2423 9.26064 10.306 9.21584 10.3588 9.15959C10.4115 9.10335 10.4521 9.03685 10.4781 8.96425C10.5041 8.89164 10.5148 8.81447 10.5097 8.73753C10.4973 8.59288 10.4306 8.45831 10.323 8.36086C10.2153 8.26342 10.0748 8.21034 9.92966 8.21229H8.25973V6.52479C8.25973 6.22642 8.37826 5.94028 8.58924 5.7293C8.80022 5.51832 9.08636 5.39979 9.38473 5.39979H10.5097C10.5868 5.39996 10.6632 5.38428 10.734 5.35371C10.8048 5.32314 10.8685 5.27834 10.9213 5.22209C10.974 5.16585 11.0146 5.09935 11.0406 5.02675C11.0666 4.95414 11.0773 4.87697 11.0722 4.80003C11.0598 4.65514 10.9929 4.52036 10.8849 4.42288C10.777 4.3254 10.6362 4.27248 10.4907 4.27479H9.38473C8.788 4.27479 8.2157 4.51185 7.79374 4.9338C7.37179 5.35576 7.13473 5.92806 7.13473 6.52479V8.21229H5.44723C5.37012 8.21212 5.2938 8.22781 5.22301 8.25838C5.15221 8.28895 5.08846 8.33375 5.03571 8.38999C4.98296 8.44624 4.94233 8.51273 4.91636 8.58534C4.89039 8.65794 4.87962 8.73512 4.88473 8.81206C4.89718 8.95695 4.96411 9.09173 5.07202 9.18921C5.17994 9.28668 5.32081 9.33961 5.46622 9.33729H7.13473V14.6304C7.13497 14.6701 7.12681 14.7094 7.11079 14.7457C7.09476 14.782 7.07123 14.8145 7.04174 14.8411C7.01225 14.8676 6.97748 14.8877 6.9397 14.8998C6.90192 14.912 6.86199 14.916 6.82255 14.9117C5.001 14.6898 3.32911 13.7922 2.13782 12.3965C0.946519 11.0008 0.322636 9.20865 0.389656 7.37487C0.530281 3.578 3.60575 0.491277 7.40544 0.343621C8.38917 0.305516 9.37049 0.466212 10.2907 0.816096C11.2109 1.16598 12.0511 1.69787 12.761 2.37994C13.4709 3.06201 14.0359 3.88026 14.4223 4.78574C14.8087 5.69121 15.0085 6.66532 15.0097 7.64979Z" fill="white"/>
</svg>
