<svg width="33" height="27" viewBox="0 0 33 27" fill="none" xmlns="http://www.w3.org/2000/svg">
<path d="M31.8049 21.27C32.0273 21.5367 32.135 21.8807 32.1042 22.2267C32.0735 22.5727 31.9068 22.8923 31.6409 23.1157C28.7927 25.4765 26.2498 26.3149 23.9299 26.3149C20.8816 26.3149 18.2173 24.8678 15.7383 23.5258C11.5793 21.2683 7.98797 19.3193 2.76586 23.6472C2.63345 23.7589 2.48024 23.8433 2.31507 23.8955C2.1499 23.9476 1.97603 23.9666 1.80349 23.9513C1.63095 23.936 1.46315 23.8866 1.30977 23.8061C1.15639 23.7257 1.02045 23.6156 0.909805 23.4823C0.799158 23.349 0.715986 23.1952 0.665086 23.0296C0.614185 22.864 0.596562 22.69 0.613233 22.5176C0.629904 22.3452 0.680539 22.1778 0.762219 22.025C0.843898 21.8723 0.955007 21.7372 1.08914 21.6276C7.67953 16.1676 12.626 18.8517 16.9917 21.2207C21.1507 23.4766 24.742 25.4257 29.9641 21.0993C30.2314 20.8792 30.5749 20.7736 30.9197 20.8056C31.2645 20.8375 31.5826 21.0044 31.8049 21.27ZM29.9559 11.9184C24.7338 16.2464 21.1425 14.2973 16.9835 12.0398C12.6178 9.67237 7.67133 6.98831 1.08094 12.4483C0.816201 12.6716 0.650449 12.9905 0.619802 13.3354C0.589154 13.6804 0.696094 14.0235 0.917317 14.29C1.13854 14.5564 1.45611 14.7247 1.80083 14.758C2.14555 14.7913 2.48948 14.6871 2.75765 14.4679C7.97976 10.14 11.5711 12.089 15.7301 14.3465C18.2091 15.6902 20.8734 17.1356 23.9217 17.1356C26.2416 17.1356 28.7845 16.2972 31.6327 13.9364C31.7668 13.8268 31.8779 13.6917 31.9596 13.5389C32.0413 13.3862 32.0919 13.2188 32.1086 13.0463C32.1252 12.8739 32.1076 12.6999 32.0567 12.5344C32.0058 12.3688 31.9226 12.2149 31.812 12.0816C31.7013 11.9484 31.5654 11.8383 31.412 11.7578C31.2586 11.6773 31.0908 11.628 30.9183 11.6127C30.7458 11.5974 30.5719 11.6163 30.4067 11.6685C30.2416 11.7207 30.0883 11.8051 29.9559 11.9167V11.9184ZM2.75765 5.28206C7.97976 0.955736 11.5711 2.9048 15.7301 5.16066C18.2091 6.50597 20.8734 7.94972 23.9217 7.94972C26.2416 7.94972 28.7845 7.10972 31.6327 4.7505C31.7668 4.64089 31.8779 4.50582 31.9596 4.35307C32.0413 4.20031 32.0919 4.0329 32.1086 3.86049C32.1252 3.68807 32.1076 3.51406 32.0567 3.34849C32.0058 3.18292 31.9226 3.02906 31.812 2.89579C31.7013 2.76251 31.5654 2.65246 31.412 2.57197C31.2586 2.49148 31.0908 2.44215 30.9183 2.42682C30.7458 2.41149 30.5719 2.43047 30.4067 2.48266C30.2416 2.53484 30.0883 2.61921 29.9559 2.73089C24.7338 7.05886 21.1425 5.1098 16.9835 2.8523C12.6178 0.488157 7.67133 -2.19591 1.08094 3.26409C0.942125 3.37212 0.826444 3.50695 0.740766 3.66056C0.655087 3.81417 0.601158 3.98344 0.582183 4.1583C0.563209 4.33317 0.579575 4.51006 0.630311 4.67848C0.681046 4.84689 0.765115 5.00339 0.877524 5.13868C0.989932 5.27397 1.12839 5.38528 1.28466 5.466C1.44093 5.54673 1.61184 5.59522 1.78722 5.60859C1.9626 5.62197 2.13888 5.59995 2.30559 5.54386C2.4723 5.48777 2.62603 5.39874 2.75765 5.28206Z" fill="#33CFFF"/>
</svg>
