<svg width="33" height="35" viewBox="0 0 33 35" fill="none" xmlns="http://www.w3.org/2000/svg">
<path d="M23.7515 7.90728L20.2307 9.31494L23.7515 10.721C24.0745 10.8515 24.3325 11.105 24.4687 11.4258C24.6048 11.7465 24.608 12.1082 24.4774 12.4313C24.3469 12.7544 24.0934 13.0124 23.7726 13.1485C23.4519 13.2847 23.0902 13.2878 22.7671 13.1573L16.6968 10.7275L10.6265 13.1573C10.4665 13.2219 10.2954 13.2544 10.1228 13.2529C9.9503 13.2514 9.77976 13.2159 9.62093 13.1485C9.46211 13.0811 9.31813 12.9831 9.19719 12.86C9.07626 12.737 8.98075 12.5913 8.91611 12.4313C8.85148 12.2713 8.81898 12.1002 8.82049 11.9277C8.82199 11.7551 8.85746 11.5846 8.92488 11.4258C8.99229 11.267 9.09033 11.123 9.21338 11.002C9.33644 10.8811 9.48212 10.7856 9.64209 10.721L13.1629 9.31494L9.64209 7.90728C9.48212 7.84265 9.33644 7.74714 9.21338 7.62621C9.09033 7.50527 8.99229 7.36128 8.92488 7.20246C8.85746 7.04364 8.82199 6.8731 8.82049 6.70057C8.81898 6.52804 8.85148 6.3569 8.91611 6.19693C8.98075 6.03696 9.07626 5.89129 9.19719 5.76823C9.31813 5.64517 9.46211 5.54713 9.62093 5.47972C9.77976 5.41231 9.9503 5.37684 10.1228 5.37533C10.2954 5.37383 10.4665 5.40632 10.6265 5.47096L16.6968 7.90072L22.7671 5.47096C22.9271 5.40632 23.0982 5.37383 23.2707 5.37533C23.4433 5.37684 23.6138 5.41231 23.7726 5.47972C23.9314 5.54713 24.0754 5.64517 24.1964 5.76823C24.3173 5.89129 24.4128 6.03696 24.4774 6.19693C24.5421 6.3569 24.5746 6.52804 24.5731 6.70057C24.5716 6.8731 24.5361 7.04364 24.4687 7.20246C24.4013 7.36128 24.3032 7.50527 24.1802 7.62621C24.0571 7.74714 23.9114 7.84265 23.7515 7.90728ZM32.4468 9.27393C32.4468 16.2827 31.1343 21.6442 30.0367 24.9058C28.6044 29.1386 26.6521 32.369 24.6801 33.7652C24.3048 34.0351 23.8638 34.1991 23.4034 34.2398C22.9429 34.2805 22.48 34.1964 22.0633 33.9965C21.6407 33.7971 21.2786 33.4892 21.014 33.1041C20.7494 32.719 20.5918 32.2706 20.5572 31.8046C20.4177 29.9179 19.7287 23.7524 16.6968 23.7524C13.6649 23.7524 12.9758 29.9195 12.8364 31.8096C12.7872 32.4727 12.4895 33.0929 12.0029 33.5462C11.5162 33.9994 10.8764 34.2522 10.2114 34.2541C9.67377 34.2533 9.1499 34.0841 8.7135 33.7701C6.74475 32.3706 4.78912 29.1403 3.35686 24.9107C2.25928 21.6442 0.946777 16.2827 0.946777 9.27393C0.957624 6.84436 1.93038 4.51801 3.65219 2.80388C5.37401 1.08975 7.70469 0.127417 10.1343 0.127441H23.2593C25.6889 0.127417 28.0195 1.08975 29.7414 2.80388C31.4632 4.51801 32.4359 6.84436 32.4468 9.27393ZM29.8218 9.27393C29.8109 7.54056 29.1148 5.88188 27.8852 4.66003C26.6557 3.43818 24.9927 2.75241 23.2593 2.75244H10.1343C8.40059 2.75241 6.73734 3.43841 5.50775 4.66061C4.27817 5.88282 3.58218 7.54192 3.57178 9.27557C3.57178 15.9283 4.80389 20.9896 5.84404 24.0642C7.65693 29.4224 9.61748 31.1796 10.2097 31.611C10.72 24.8467 13.0201 21.1274 16.6968 21.1274C20.3734 21.1274 22.6769 24.8533 23.1756 31.6176C23.7662 31.1927 25.7301 29.4421 27.5495 24.0707C28.5897 20.9896 29.8218 15.9283 29.8218 9.27557V9.27393Z" fill="#33CFFF"/>
</svg>
