<svg width="16" height="15" viewBox="0 0 16 15" fill="none" xmlns="http://www.w3.org/2000/svg">
<path d="M11.375 0.216797H4.625C3.58105 0.217914 2.58018 0.633115 1.842 1.3713C1.10382 2.10948 0.688617 3.11035 0.6875 4.1543V10.9043C0.688617 11.9482 1.10382 12.9491 1.842 13.6873C2.58018 14.4255 3.58105 14.8407 4.625 14.8418H11.375C12.4189 14.8407 13.4198 14.4255 14.158 13.6873C14.8962 12.9491 15.3114 11.9482 15.3125 10.9043V4.1543C15.3114 3.11035 14.8962 2.10948 14.158 1.3713C13.4198 0.633115 12.4189 0.217914 11.375 0.216797ZM8 10.9043C7.33249 10.9043 6.67997 10.7064 6.12495 10.3355C5.56993 9.96466 5.13735 9.43755 4.88191 8.82085C4.62646 8.20415 4.55962 7.52555 4.68985 6.87087C4.82008 6.21618 5.14151 5.61481 5.61351 5.14281C6.08552 4.67081 6.68688 4.34937 7.34157 4.21915C7.99626 4.08892 8.67486 4.15576 9.29156 4.4112C9.90826 4.66665 10.4354 5.09923 10.8062 5.65425C11.1771 6.20926 11.375 6.86178 11.375 7.5293C11.3741 8.42412 11.0182 9.28202 10.3855 9.91475C9.75272 10.5475 8.89482 10.9034 8 10.9043ZM12.2188 4.1543C12.0519 4.1543 11.8887 4.10481 11.75 4.0121C11.6112 3.91939 11.5031 3.78761 11.4392 3.63344C11.3754 3.47926 11.3587 3.30961 11.3912 3.14594C11.4238 2.98227 11.5041 2.83193 11.6221 2.71393C11.7401 2.59592 11.8905 2.51557 12.0541 2.48301C12.2178 2.45045 12.3875 2.46716 12.5416 2.53102C12.6958 2.59488 12.8276 2.70303 12.9203 2.84178C13.013 2.98054 13.0625 3.14367 13.0625 3.31055C13.0625 3.53432 12.9736 3.74893 12.8154 3.90717C12.6571 4.0654 12.4425 4.1543 12.2188 4.1543ZM10.25 7.5293C10.25 7.9743 10.118 8.40932 9.87081 8.77933C9.62357 9.14934 9.27217 9.43773 8.86104 9.60803C8.4499 9.77832 7.9975 9.82288 7.56105 9.73606C7.12459 9.64925 6.72368 9.43495 6.40901 9.12029C6.09434 8.80562 5.88005 8.40471 5.79323 7.96825C5.70642 7.53179 5.75097 7.07939 5.92127 6.66826C6.09157 6.25713 6.37996 5.90572 6.74997 5.65849C7.11998 5.41126 7.55499 5.2793 8 5.2793C8.59674 5.2793 9.16903 5.51635 9.59099 5.93831C10.0129 6.36026 10.25 6.93256 10.25 7.5293Z" fill="white"/>
</svg>
