<svg width="15" height="15" viewBox="0 0 15 15" fill="none" xmlns="http://www.w3.org/2000/svg">
<path d="M11.0723 0.338135H4.32227C3.27832 0.339251 2.27745 0.754453 1.53927 1.49264C0.801084 2.23082 0.385882 3.23169 0.384766 4.27563V11.0256C0.385882 12.0696 0.801084 13.0705 1.53927 13.8086C2.27745 14.5468 3.27832 14.962 4.32227 14.9631H11.0723C12.1162 14.962 13.1171 14.5468 13.8553 13.8086C14.5934 13.0705 15.0086 12.0696 15.0098 11.0256V4.27563C15.0086 3.23169 14.5934 2.23082 13.8553 1.49264C13.1171 0.754453 12.1162 0.339251 11.0723 0.338135ZM7.69727 11.0256C7.02975 11.0256 6.37723 10.8277 5.82222 10.4568C5.2672 10.086 4.83462 9.55889 4.57917 8.94219C4.32373 8.32549 4.25689 7.64689 4.38712 6.99221C4.51734 6.33752 4.83878 5.73615 5.31078 5.26415C5.78278 4.79215 6.38415 4.47071 7.03884 4.34048C7.69352 4.21026 8.37212 4.2771 8.98882 4.53254C9.60552 4.78799 10.1326 5.22057 10.5035 5.77559C10.8743 6.3306 11.0723 6.98312 11.0723 7.65063C11.0713 8.54545 10.7155 9.40336 10.0827 10.0361C9.44999 10.6688 8.59209 11.0247 7.69727 11.0256ZM11.916 4.27563C11.7491 4.27563 11.586 4.22615 11.4473 4.13344C11.3085 4.04072 11.2004 3.90895 11.1365 3.75477C11.0726 3.6006 11.0559 3.43095 11.0885 3.26728C11.121 3.10361 11.2014 2.95326 11.3194 2.83526C11.4374 2.71726 11.5877 2.6369 11.7514 2.60435C11.9151 2.57179 12.0847 2.5885 12.2389 2.65236C12.3931 2.71622 12.5249 2.82437 12.6176 2.96312C12.7103 3.10188 12.7598 3.26501 12.7598 3.43188C12.7598 3.65566 12.6709 3.87027 12.5126 4.02851C12.3544 4.18674 12.1398 4.27563 11.916 4.27563ZM9.94727 7.65063C9.94727 8.09564 9.81531 8.53066 9.56807 8.90067C9.32084 9.27068 8.96944 9.55907 8.5583 9.72936C8.14717 9.89966 7.69477 9.94422 7.25831 9.8574C6.82186 9.77059 6.42094 9.55629 6.10628 9.24162C5.79161 8.92696 5.57732 8.52604 5.4905 8.08959C5.40368 7.65313 5.44824 7.20073 5.61854 6.7896C5.78883 6.37846 6.07722 6.02706 6.44723 5.77983C6.81724 5.5326 7.25226 5.40063 7.69727 5.40063C8.294 5.40063 8.8663 5.63769 9.28826 6.05964C9.71021 6.4816 9.94727 7.0539 9.94727 7.65063Z" fill="white"/>
</svg>
