<svg width="15" height="15" viewBox="0 0 15 15" fill="none" xmlns="http://www.w3.org/2000/svg">
<path d="M13.8848 0.338135H1.50977C1.2114 0.338135 0.925249 0.456661 0.71427 0.66764C0.503292 0.878618 0.384766 1.16477 0.384766 1.46313V13.8381C0.384766 14.1365 0.503292 14.4227 0.71427 14.6336C0.925249 14.8446 1.2114 14.9631 1.50977 14.9631H13.8848C14.1831 14.9631 14.4693 14.8446 14.6803 14.6336C14.8912 14.4227 15.0098 14.1365 15.0098 13.8381V1.46313C15.0098 1.16477 14.8912 0.878618 14.6803 0.66764C14.4693 0.456661 14.1831 0.338135 13.8848 0.338135ZM5.44727 11.0256C5.44727 11.1748 5.388 11.3179 5.28251 11.4234C5.17702 11.5289 5.03395 11.5881 4.88477 11.5881C4.73558 11.5881 4.59251 11.5289 4.48702 11.4234C4.38153 11.3179 4.32227 11.1748 4.32227 11.0256V6.52563C4.32227 6.37645 4.38153 6.23338 4.48702 6.12789C4.59251 6.0224 4.73558 5.96313 4.88477 5.96313C5.03395 5.96313 5.17702 6.0224 5.28251 6.12789C5.388 6.23338 5.44727 6.37645 5.44727 6.52563V11.0256ZM4.88477 5.40063C4.71789 5.40063 4.55476 5.35115 4.416 5.25844C4.27725 5.16573 4.1691 5.03395 4.10524 4.87977C4.04138 4.7256 4.02467 4.55595 4.05723 4.39228C4.08978 4.22861 4.17014 4.07826 4.28814 3.96026C4.40614 3.84226 4.55649 3.7619 4.72016 3.72935C4.88383 3.69679 5.05348 3.7135 5.20765 3.77736C5.36183 3.84122 5.49361 3.94937 5.58632 4.08812C5.67903 4.22688 5.72852 4.39001 5.72852 4.55688C5.72852 4.78066 5.63962 4.99527 5.48139 5.15351C5.32315 5.31174 5.10854 5.40063 4.88477 5.40063ZM11.6348 11.0256C11.6348 11.1748 11.5755 11.3179 11.47 11.4234C11.3645 11.5289 11.2214 11.5881 11.0723 11.5881C10.9231 11.5881 10.78 11.5289 10.6745 11.4234C10.569 11.3179 10.5098 11.1748 10.5098 11.0256V8.49438C10.5098 8.12142 10.3616 7.76374 10.0979 7.50002C9.83416 7.23629 9.47648 7.08813 9.10352 7.08813C8.73055 7.08813 8.37287 7.23629 8.10915 7.50002C7.84542 7.76374 7.69727 8.12142 7.69727 8.49438V11.0256C7.69727 11.1748 7.638 11.3179 7.53251 11.4234C7.42702 11.5289 7.28395 11.5881 7.13477 11.5881C6.98558 11.5881 6.84251 11.5289 6.73702 11.4234C6.63153 11.3179 6.57227 11.1748 6.57227 11.0256V6.52563C6.57296 6.38785 6.62421 6.25512 6.71628 6.15261C6.80834 6.05011 6.93483 5.98496 7.07175 5.96952C7.20866 5.95409 7.34648 5.98944 7.45906 6.06888C7.57164 6.14832 7.65115 6.26631 7.6825 6.40048C8.06302 6.14234 8.50667 5.99273 8.96581 5.96772C9.42494 5.9427 9.88222 6.04322 10.2885 6.25849C10.6948 6.47376 11.0349 6.79563 11.272 7.18956C11.5092 7.58348 11.6346 8.03457 11.6348 8.49438V11.0256Z" fill="white"/>
</svg>
