<svg width="12" height="15" viewBox="0 0 12 15" fill="none" xmlns="http://www.w3.org/2000/svg">
<path d="M5.84131 0.0292969C4.38313 0.0309511 2.98514 0.610945 1.95405 1.64204C0.922956 2.67313 0.342963 4.07111 0.341309 5.5293C0.341309 10.2355 5.34131 13.7899 5.55443 13.9387C5.6385 13.9976 5.73866 14.0292 5.84131 14.0292C5.94395 14.0292 6.04411 13.9976 6.12818 13.9387C6.34131 13.7899 11.3413 10.2355 11.3413 5.5293C11.3397 4.07111 10.7597 2.67313 9.72857 1.64204C8.69748 0.610945 7.29949 0.0309511 5.84131 0.0292969ZM5.84131 3.5293C6.23687 3.5293 6.62355 3.6466 6.95245 3.86636C7.28135 4.08612 7.53769 4.39848 7.68907 4.76393C7.84044 5.12938 7.88005 5.53152 7.80288 5.91948C7.72571 6.30744 7.53523 6.66381 7.25552 6.94351C6.97582 7.22322 6.61945 7.4137 6.23149 7.49087C5.84353 7.56804 5.44139 7.52843 5.07594 7.37706C4.71049 7.22568 4.39813 6.96934 4.17837 6.64044C3.95861 6.31154 3.84131 5.92486 3.84131 5.5293C3.84131 4.99886 4.05202 4.49016 4.42709 4.11508C4.80217 3.74001 5.31088 3.5293 5.84131 3.5293Z" fill="#F0FBFF"/>
</svg>
