<svg width="43" height="42" viewBox="0 0 43 42" fill="none" xmlns="http://www.w3.org/2000/svg">
<path d="M36.6794 25.9975L28.9504 22.5341L28.9291 22.5243C28.5278 22.3527 28.0901 22.2838 27.6556 22.3239C27.221 22.364 26.8033 22.5118 26.4402 22.754C26.3975 22.7822 26.3564 22.8129 26.3172 22.8459L22.3239 26.2502C19.7941 25.0213 17.1822 22.4291 15.9534 19.9321L19.3626 15.8781C19.3954 15.8371 19.4266 15.7961 19.4561 15.7518C19.693 15.3897 19.8368 14.9747 19.8746 14.5436C19.9124 14.1125 19.843 13.6788 19.6727 13.281V13.2613L16.1994 5.51922C15.9743 4.99957 15.587 4.5667 15.0956 4.2852C14.6042 4.00371 14.0349 3.8887 13.4727 3.95734C11.2496 4.24988 9.20904 5.34165 7.73207 7.02875C6.25511 8.71585 5.44277 10.8829 5.44679 13.1252C5.44679 26.1517 16.0452 36.7502 29.0718 36.7502C31.314 36.7542 33.4811 35.9418 35.1682 34.4649C36.8553 32.9879 37.9471 30.9473 38.2396 28.7242C38.3084 28.1622 38.1936 27.5931 37.9124 27.1017C37.6312 26.6103 37.1987 26.223 36.6794 25.9975ZM29.0718 34.1252C23.5041 34.1191 18.1662 31.9046 14.2293 27.9677C10.2923 24.0307 8.07787 18.6928 8.07179 13.1252C8.06562 11.5231 8.64281 9.97351 9.69558 8.76586C10.7483 7.55822 12.2047 6.77506 13.7927 6.56266C13.792 6.5692 13.792 6.5758 13.7927 6.58234L17.238 14.2933L13.8468 18.3522C13.8124 18.3918 13.7811 18.434 13.7533 18.4785C13.5064 18.8574 13.3616 19.2936 13.3328 19.7449C13.3041 20.1961 13.3924 20.6472 13.5892 21.0543C15.0756 24.0944 18.1387 27.1345 21.2116 28.6192C21.6217 28.8142 22.0753 28.8995 22.5282 28.8667C22.9811 28.8339 23.4178 28.6842 23.7955 28.4322C23.8377 28.4038 23.8782 28.3731 23.9169 28.3403L27.9053 24.9377L35.6162 28.3912C35.6162 28.3912 35.6294 28.3912 35.6343 28.3912C35.4245 29.9814 34.6425 31.4407 33.4346 32.496C32.2268 33.5514 30.6758 34.1306 29.0718 34.1252Z" fill="#33CFFF"/>
</svg>
