<svg width="13" height="13" viewBox="0 0 13 13" fill="none" xmlns="http://www.w3.org/2000/svg">
<path d="M12.4925 9.72167C12.3811 10.5686 11.9651 11.3459 11.3224 11.9086C10.6797 12.4712 9.8542 12.7807 9.00001 12.7792C4.03751 12.7792 5.6554e-06 8.74167 5.6554e-06 3.77917C-0.00152558 2.92498 0.307935 2.09943 0.870589 1.45673C1.43324 0.814026 2.21061 0.398112 3.05751 0.28667C3.27166 0.260521 3.48854 0.304334 3.67575 0.411569C3.86296 0.518805 4.01047 0.683711 4.09626 0.88167L5.41626 3.82855V3.83605C5.48194 3.98758 5.50906 4.15302 5.49521 4.31759C5.48136 4.48217 5.42696 4.64075 5.33688 4.77917C5.32563 4.79605 5.31376 4.81167 5.30126 4.8273L4.00001 6.3698C4.46813 7.32105 5.46313 8.3073 6.42688 8.77667L7.94813 7.4823C7.96307 7.46974 7.97872 7.45805 7.99501 7.4473C8.13331 7.35505 8.29244 7.29874 8.45799 7.28346C8.62353 7.26818 8.79028 7.29442 8.94313 7.3598L8.95126 7.36355L11.8956 8.68292C12.0939 8.7684 12.2592 8.91578 12.3668 9.10302C12.4744 9.29026 12.5185 9.50729 12.4925 9.72167Z" fill="#F0FBFF"/>
</svg>
