<svg width="20" height="20" viewBox="0 0 20 20" fill="none" xmlns="http://www.w3.org/2000/svg">
<path d="M10 0.380005C8.07164 0.380005 6.18657 0.951832 4.58319 2.02318C2.97982 3.09452 1.73013 4.61726 0.992179 6.39884C0.254225 8.18042 0.061142 10.1408 0.437348 12.0321C0.813554 13.9235 1.74215 15.6607 3.10571 17.0243C4.46928 18.3879 6.20656 19.3165 8.09787 19.6927C9.98919 20.0689 11.9496 19.8758 13.7312 19.1378C15.5127 18.3999 17.0355 17.1502 18.1068 15.5468C19.1782 13.9434 19.75 12.0584 19.75 10.13C19.7473 7.54498 18.7192 5.06662 16.8913 3.23873C15.0634 1.41084 12.585 0.382735 10 0.380005ZM14.2806 8.41063L9.03063 13.6606C8.96097 13.7304 8.87826 13.7857 8.78721 13.8234C8.69616 13.8612 8.59857 13.8806 8.5 13.8806C8.40144 13.8806 8.30385 13.8612 8.2128 13.8234C8.12175 13.7857 8.03903 13.7304 7.96938 13.6606L5.71938 11.4106C5.57865 11.2699 5.49959 11.079 5.49959 10.88C5.49959 10.681 5.57865 10.4901 5.71938 10.3494C5.86011 10.2086 6.05098 10.1296 6.25 10.1296C6.44903 10.1296 6.6399 10.2086 6.78063 10.3494L8.5 12.0697L13.2194 7.34938C13.2891 7.2797 13.3718 7.22442 13.4628 7.18671C13.5539 7.149 13.6515 7.12959 13.75 7.12959C13.8486 7.12959 13.9461 7.149 14.0372 7.18671C14.1282 7.22442 14.2109 7.2797 14.2806 7.34938C14.3503 7.41906 14.4056 7.50179 14.4433 7.59283C14.481 7.68388 14.5004 7.78146 14.5004 7.88C14.5004 7.97855 14.481 8.07613 14.4433 8.16718C14.4056 8.25822 14.3503 8.34095 14.2806 8.41063Z" fill="#40C4AA"/>
</svg>
