<svg width="45" height="44" viewBox="0 0 45 44" fill="none" xmlns="http://www.w3.org/2000/svg">
<path d="M42.1617 29.6389C40.839 26.7881 39.2266 24.0809 37.35 21.56C39.2266 19.0391 40.839 16.3319 42.1617 13.4811C44.5946 8.07643 44.6953 3.87174 42.4453 1.61471C40.1953 -0.642324 35.9836 -0.534511 30.5789 1.8983C27.7281 3.22102 25.0209 4.83341 22.5 6.71002C19.9791 4.83341 17.2719 3.22102 14.4211 1.8983C9.01643 -0.534511 4.80237 -0.635292 2.55472 1.61471C0.307059 3.86471 0.405497 8.07643 2.83831 13.4811C4.16103 16.3319 5.77342 19.0391 7.65003 21.56C5.77342 24.0809 4.16103 26.7881 2.83831 29.6389C0.405497 35.0436 0.304716 39.2483 2.55472 41.5053C3.63284 42.5835 5.15628 43.1225 7.0594 43.1225C9.11722 43.1225 11.6086 42.4874 14.4211 41.2217C17.2719 39.899 19.9791 38.2866 22.5 36.41C25.0209 38.2866 27.7281 39.899 30.5789 41.2217C33.3914 42.4874 35.8828 43.1225 37.9407 43.1225C39.8368 43.1225 41.3672 42.5835 42.4453 41.5053C44.6953 39.2577 44.5946 35.0436 42.1617 29.6389ZM41.1211 2.93893C43.5282 5.3483 41.8571 12.0913 36.1758 20.0108C34.4056 17.757 32.4997 15.6132 30.4688 13.5913C28.4435 11.5632 26.2966 9.66048 24.0399 7.89361C31.9688 2.20065 38.7117 0.529551 41.1211 2.93893ZM35.0274 21.56C33.2195 23.901 31.2623 26.1228 29.168 28.2116C27.0798 30.3065 24.858 32.2637 22.5164 34.071C20.1749 32.2637 17.953 30.3065 15.8649 28.2116C13.7706 26.1228 11.8134 23.901 10.0055 21.56C13.6311 16.8811 17.8286 12.675 22.5 9.03971C24.8391 10.849 27.0601 12.8062 29.1492 14.8991C31.247 16.9906 33.2074 19.2155 35.018 21.56H35.0274ZM3.87893 2.93893C4.59378 2.2358 5.68597 1.87252 7.07581 1.87252C10.3828 1.87252 15.375 3.8858 20.9485 7.88424C16.435 11.4251 12.3642 15.4966 8.82425 20.0108C3.143 12.0913 1.4719 5.3483 3.87893 2.93893ZM3.87893 40.1811C1.4719 37.7717 3.143 31.0405 8.82425 23.1092C10.5944 25.363 12.5003 27.5068 14.5313 29.5288C16.5565 31.5568 18.7035 33.4596 20.9602 35.2264C13.0313 40.9171 6.28831 42.5881 3.87893 40.1811ZM41.1211 40.1811C38.7117 42.5881 31.9805 40.9171 24.0492 35.2358C26.303 33.4656 28.4468 31.5597 30.4688 29.5288C32.4968 27.5035 34.3996 25.3566 36.1664 23.0999C41.8571 31.0288 43.5282 37.7717 41.1211 40.1811ZM24.375 21.56C24.375 21.9309 24.2651 22.2934 24.059 22.6017C23.853 22.9101 23.5602 23.1504 23.2176 23.2923C22.8749 23.4342 22.4979 23.4713 22.1342 23.399C21.7705 23.3266 21.4364 23.1481 21.1742 22.8858C20.912 22.6236 20.7334 22.2895 20.6611 21.9258C20.5887 21.5621 20.6258 21.1851 20.7678 20.8425C20.9097 20.4999 21.15 20.207 21.4583 20.001C21.7667 19.795 22.1292 19.685 22.5 19.685C22.9973 19.685 23.4742 19.8826 23.8259 20.2342C24.1775 20.5858 24.375 21.0627 24.375 21.56Z" fill="white"/>
</svg>
