<svg width="99" height="20" viewBox="0 0 99 20" fill="none" xmlns="http://www.w3.org/2000/svg">
<g clip-path="url(#clip0_29_158)">
<path d="M9.69678 1.05005L11.7174 7.2689H18.2563L12.9662 11.1123L14.9869 17.3312L9.69678 13.4877L4.40671 17.3312L6.42734 11.1123L1.13727 7.2689H7.67615L9.69678 1.05005Z" fill="#FFBE4C"/>
<path d="M29.6968 1.05005L31.7174 7.2689H38.2563L32.9662 11.1123L34.9869 17.3312L29.6968 13.4877L24.4067 17.3312L26.4274 11.1123L21.1373 7.2689H27.6762L29.6968 1.05005Z" fill="#FFBE4C"/>
<path d="M49.6968 1.05005L51.7174 7.2689H58.2563L52.9662 11.1123L54.9869 17.3312L49.6968 13.4877L44.4067 17.3312L46.4274 11.1123L41.1373 7.2689H47.6762L49.6968 1.05005Z" fill="#FFBE4C"/>
<path d="M69.6968 1.05005L71.7174 7.2689H78.2563L72.9662 11.1123L74.9869 17.3312L69.6968 13.4877L64.4067 17.3312L66.4274 11.1123L61.1373 7.2689H67.6762L69.6968 1.05005Z" fill="#FFBE4C"/>
<path d="M89.6968 1.05005L91.7174 7.2689H98.2563L92.9662 11.1123L94.9869 17.3312L89.6968 13.4877L84.4067 17.3312L86.4274 11.1123L81.1373 7.2689H87.6762L89.6968 1.05005Z" fill="#FFBE4C"/>
</g>
<defs>
<clipPath id="clip0_29_158">
<rect width="98" height="19" fill="white" transform="translate(0.696777 0.550049)"/>
</clipPath>
</defs>
</svg>
