<svg width="40" height="39" viewBox="0 0 40 39" fill="none" xmlns="http://www.w3.org/2000/svg">
<path d="M30.7723 20.3638L22.31 17.2368L19.1928 8.76791C19.0082 8.26642 18.6742 7.83362 18.2359 7.5279C17.7976 7.22219 17.2761 7.05827 16.7417 7.05827C16.2073 7.05827 15.6858 7.22219 15.2475 7.5279C14.8092 7.83362 14.4752 8.26642 14.2906 8.76791L11.1537 17.2368L2.6848 20.354C2.18331 20.5386 1.7505 20.8726 1.44479 21.3109C1.13907 21.7492 0.975159 22.2707 0.975159 22.8051C0.975159 23.3395 1.13907 23.861 1.44479 24.2993C1.7505 24.7376 2.18331 25.0716 2.6848 25.2562L11.1537 28.3931L14.2709 36.862C14.4555 37.3635 14.7895 37.7963 15.2278 38.102C15.6661 38.4077 16.1876 38.5716 16.722 38.5716C17.2564 38.5716 17.7779 38.4077 18.2162 38.102C18.6545 37.7963 18.9885 37.3635 19.1731 36.862L22.31 28.3931L30.7789 25.2759C31.2803 25.0913 31.7132 24.7573 32.0189 24.319C32.3246 23.8807 32.4885 23.3592 32.4885 22.8248C32.4885 22.2904 32.3246 21.7689 32.0189 21.3306C31.7132 20.8923 31.2803 20.5583 30.7789 20.3737L30.7723 20.3638ZM20.8334 26.1323C20.6552 26.1979 20.4934 26.3015 20.3592 26.4357C20.2249 26.57 20.1214 26.7318 20.0557 26.9099L16.7318 35.9153L13.4145 26.9165C13.3489 26.7365 13.2448 26.573 13.1093 26.4375C12.9738 26.302 12.8103 26.1978 12.6303 26.1323L3.63144 22.8149L12.6303 19.4976C12.8103 19.432 12.9738 19.3279 13.1093 19.1924C13.2448 19.0569 13.3489 18.8934 13.4145 18.7134L16.7318 9.71455L20.0492 18.7134C20.1148 18.8915 20.2184 19.0533 20.3526 19.1876C20.4869 19.3218 20.6487 19.4254 20.8268 19.491L29.8322 22.8149L20.8334 26.1323ZM21.9818 5.75244C21.9818 5.40434 22.1201 5.07051 22.3662 4.82436C22.6124 4.57822 22.9462 4.43994 23.2943 4.43994H25.9193V1.81494C25.9193 1.46684 26.0576 1.13301 26.3037 0.886864C26.5499 0.640722 26.8837 0.502441 27.2318 0.502441C27.5799 0.502441 27.9138 0.640722 28.1599 0.886864C28.406 1.13301 28.5443 1.46684 28.5443 1.81494V4.43994H31.1693C31.5174 4.43994 31.8513 4.57822 32.0974 4.82436C32.3435 5.07051 32.4818 5.40434 32.4818 5.75244C32.4818 6.10054 32.3435 6.43438 32.0974 6.68052C31.8513 6.92666 31.5174 7.06494 31.1693 7.06494H28.5443V9.68994C28.5443 10.038 28.406 10.3719 28.1599 10.618C27.9138 10.8642 27.5799 11.0024 27.2318 11.0024C26.8837 11.0024 26.5499 10.8642 26.3037 10.618C26.0576 10.3719 25.9193 10.038 25.9193 9.68994V7.06494H23.2943C22.9462 7.06494 22.6124 6.92666 22.3662 6.68052C22.1201 6.43438 21.9818 6.10054 21.9818 5.75244ZM39.0443 13.6274C39.0443 13.9755 38.906 14.3094 38.6599 14.5555C38.4138 14.8017 38.0799 14.9399 37.7318 14.9399H36.4193V16.2524C36.4193 16.6005 36.281 16.9344 36.0349 17.1805C35.7888 17.4267 35.4549 17.5649 35.1068 17.5649C34.7587 17.5649 34.4249 17.4267 34.1787 17.1805C33.9326 16.9344 33.7943 16.6005 33.7943 16.2524V14.9399H32.4818C32.1337 14.9399 31.7999 14.8017 31.5537 14.5555C31.3076 14.3094 31.1693 13.9755 31.1693 13.6274C31.1693 13.2793 31.3076 12.9455 31.5537 12.6994C31.7999 12.4532 32.1337 12.3149 32.4818 12.3149H33.7943V11.0024C33.7943 10.6543 33.9326 10.3205 34.1787 10.0744C34.4249 9.82822 34.7587 9.68994 35.1068 9.68994C35.4549 9.68994 35.7888 9.82822 36.0349 10.0744C36.281 10.3205 36.4193 10.6543 36.4193 11.0024V12.3149H37.7318C38.0799 12.3149 38.4138 12.4532 38.6599 12.6994C38.906 12.9455 39.0443 13.2793 39.0443 13.6274Z" fill="#33CFFF"/>
</svg>
