<svg width="17" height="14" viewBox="0 0 17 14" fill="none" xmlns="http://www.w3.org/2000/svg">
<path d="M15.9711 3.11142L13.8687 5.21377C13.4441 10.137 9.29211 13.9635 4.32312 13.9635C3.30219 13.9635 2.46055 13.8017 1.82141 13.4825C1.30602 13.2245 1.09508 12.9481 1.04234 12.8694C0.995321 12.7989 0.964843 12.7186 0.953187 12.6347C0.94153 12.5507 0.948996 12.4652 0.975027 12.3846C1.00106 12.3039 1.04498 12.2302 1.10351 12.1689C1.16204 12.1076 1.23367 12.0603 1.31305 12.0306C1.33133 12.0235 3.01742 11.376 4.08828 10.1434C3.49441 9.65511 2.97599 9.08172 2.54984 8.44181C1.67797 7.14736 0.702031 4.89877 1.00297 1.53853C1.01251 1.43176 1.05236 1.32993 1.11783 1.24505C1.18329 1.16017 1.27165 1.09576 1.3725 1.05941C1.47335 1.02306 1.58248 1.01628 1.68705 1.03988C1.79162 1.06348 1.88727 1.11646 1.96273 1.19259C1.98734 1.2172 4.30273 3.51994 7.13352 4.26666V3.83845C7.13244 3.38943 7.22121 2.94474 7.39462 2.53055C7.56802 2.11636 7.82255 1.74106 8.1432 1.42673C8.45462 1.11576 8.82516 0.87031 9.23297 0.704867C9.64079 0.539423 10.0776 0.457337 10.5177 0.463453C11.108 0.469276 11.6867 0.62774 12.1977 0.923441C12.7086 1.21914 13.1344 1.64202 13.4335 2.15095H15.5731C15.6844 2.15087 15.7933 2.18381 15.8859 2.24561C15.9784 2.30741 16.0506 2.3953 16.0932 2.49813C16.1358 2.60097 16.147 2.71414 16.1252 2.82331C16.1035 2.93249 16.0499 3.03275 15.9711 3.11142Z" fill="white"/>
</svg>
