<svg width="17" height="13" viewBox="0 0 17 13" fill="none" xmlns="http://www.w3.org/2000/svg">
<path d="M16.1736 2.53876C16.1073 2.27955 15.9804 2.03981 15.8033 1.83932C15.6261 1.63882 15.4038 1.48332 15.1548 1.38564C12.7445 0.4547 8.9082 0.463137 8.69727 0.463137C8.48633 0.463137 4.65008 0.4547 2.23977 1.38564C1.99069 1.48332 1.76841 1.63882 1.59127 1.83932C1.41412 2.03981 1.28719 2.27955 1.22094 2.53876C1.03883 3.24048 0.822266 4.52298 0.822266 6.65064C0.822266 8.77829 1.03883 10.0608 1.22094 10.7625C1.28709 11.0218 1.41398 11.2617 1.59113 11.4624C1.76828 11.663 1.99061 11.8186 2.23977 11.9163C4.54883 12.8072 8.16289 12.8381 8.65086 12.8381H8.74367C9.23164 12.8381 12.8478 12.8072 15.1548 11.9163C15.4039 11.8186 15.6262 11.663 15.8034 11.4624C15.9806 11.2617 16.1074 11.0218 16.1736 10.7625C16.3557 10.0594 16.5723 8.77829 16.5723 6.65064C16.5723 4.52298 16.3557 3.24048 16.1736 2.53876ZM10.9887 7.10908L8.17625 9.07783C8.09212 9.13676 7.99345 9.17154 7.89096 9.17838C7.78846 9.18521 7.68605 9.16386 7.59484 9.11662C7.50362 9.06938 7.42708 8.99806 7.37352 8.91041C7.31996 8.82276 7.29143 8.72211 7.29102 8.61939V4.68189C7.29104 4.57899 7.3193 4.47807 7.3727 4.39011C7.42611 4.30215 7.50262 4.23053 7.5939 4.18304C7.68519 4.13555 7.78775 4.114 7.89043 4.12076C7.99311 4.12751 8.09197 4.1623 8.17625 4.22134L10.9887 6.19009C11.0627 6.24197 11.1231 6.31091 11.1648 6.39108C11.2065 6.47124 11.2283 6.56028 11.2283 6.65064C11.2283 6.741 11.2065 6.83003 11.1648 6.9102C11.1231 6.99036 11.0627 7.0593 10.9887 7.11118V7.10908Z" fill="white"/>
</svg>
